# xmcd
#
# Track frame offsets: 
#        150
#        13072
#        23007
#        34232
#        54027
#        63992
#        75292
#        85820
#        105490
#        117032
#        129392
#        140637
#        153320
#        164912
#        181647
#        191945
#
# Disc length: 2826 seconds
#
# Revision: 2
# Processed by: cddbd v1.5.1PL2 Copyright (c) Steve Scherf et al.
# Submitted via: ExactAudioCopy v0.95a5
#
DISCID=c40b0810
DTITLE=John Lee Hooker - The Hook20 Years of Hits
DYEAR=1990
DGENRE=Blues
TTITLE0=Whiskey and Women
TTITLE1=I Wanna Walk
TTITLE2=No Shoes
TTITLE3=House Rent Boogie
TTITLE4=Dimples
TTITLE5=Let's Make It
TTITLE6=Big Legs Tight Skirts
TTITLE7=You Ain't No Big Thing
TTITLE8=Boom Boom
TTITLE9=Crawlin' Kingsnake
TTITLE10=Good Rockin' Mama
TTITLE11=Frisco
TTITLE12=Boogie Chillun
TTITLE13=Mama You Got A Daughter
TTITLE14=Want Ad Blues
TTITLE15=Nightmare
EXTD=
EXTT0=
EXTT1=
EXTT2=
EXTT3=
EXTT4=
EXTT5=
EXTT6=
EXTT7=
EXTT8=
EXTT9=
EXTT10=
EXTT11=
EXTT12=
EXTT13=
EXTT14=
EXTT15=
PLAYORDER=
